<?xml version="1.0" encoding="UTF-8"?>
<svg width="1100px" height="950px" viewBox="0 0 1100 950" version="1.1" xmlns="http://www.w3.org/2000/svg" xmlns:xlink="http://www.w3.org/1999/xlink">
    <!-- Generator: Sketch 40.3 (33839) - http://www.bohemiancoding.com/sketch -->
    <title>addedToCartBG</title>
    <desc>Created with Sketch.</desc>
    <defs>
        <polygon id="path-1" points="765.008996 42.2348717 719.102737 339.472742 133.56354 339.472742 87.6572808 42.2348717"></polygon>
        <mask id="mask-2" maskContentUnits="userSpaceOnUse" maskUnits="objectBoundingBox" x="0" y="0" width="677.351715" height="297.23787" fill="white">
            <use xlink:href="#path-1"></use>
        </mask>
    </defs>
    <g id="Page-1" stroke="none" stroke-width="1" fill="none" fill-rule="evenodd">
        <g id="addedToCartBG">
            <circle id="Oval-10" stroke="#979797" fill="#26B7AD" cx="551" cy="475" r="474"></circle>
            <g id="Car" transform="translate(596.515833, 393.863512) rotate(-28.000000) translate(-596.515833, -393.863512) translate(255.015833, 278.863512)" fill="#323232">
                <g id="Shape_1_5_" transform="translate(0.000000, 0.000000)">
                    <g id="Shape_1" transform="translate(-0.000000, 0.000000)">
                        <path d="M150.371669,168.800844 C147.554562,168.800844 145.270338,171.088784 145.270338,173.910473 C145.270338,176.732163 147.554562,179.020103 150.371669,179.020103 C153.188776,179.020103 155.473,176.732163 155.473,173.910473 C155.473,171.088784 153.189547,168.800844 150.371669,168.800844 L150.371669,168.800844 Z M150.371669,183.300914 C149.177888,183.300914 148.20929,184.271087 148.20929,185.467583 C148.20929,186.663306 149.177117,187.633479 150.371669,187.633479 C151.566221,187.633479 152.534047,186.663306 152.534047,185.467583 C152.534047,184.271087 151.566221,183.300914 150.371669,183.300914 L150.371669,183.300914 Z M156.10228,189.949226 L156.10228,207.491902 C161.224433,206.621372 165.954829,204.60301 170.024326,201.711802 L157.640006,189.307336 C157.140283,189.544472 156.628222,189.760753 156.10228,189.949226 L156.10228,189.949226 Z M165.74584,181.192178 L178.129389,193.595872 C181.016673,189.520527 183.029443,184.780119 183.89933,179.649634 L166.383603,179.649634 C166.194664,180.176432 165.982591,180.691643 165.74584,181.192178 L165.74584,181.192178 Z M165.744297,166.630313 C165.981049,167.130848 166.195436,167.644515 166.384374,168.171313 L183.89933,168.171313 C183.030214,163.040827 181.015131,158.302737 178.128618,154.225847 L165.744297,166.630313 L165.744297,166.630313 Z M143.104103,158.514383 C143.604597,158.276474 144.116658,158.060966 144.6426,157.872493 L144.6426,140.329817 C139.520447,141.200347 134.790052,143.218709 130.720554,146.109917 L143.104103,158.514383 L143.104103,158.514383 Z M150.371669,118.132474 C119.616386,118.132474 94.6834851,143.105161 94.6834851,173.911246 C94.6834851,204.71733 119.616386,229.690017 150.371669,229.690017 C181.127722,229.690017 206.059853,204.71733 206.059853,173.911246 C206.059853,143.105161 181.127722,118.132474 150.371669,118.132474 L150.371669,118.132474 Z M150.371669,213.753225 C128.403169,213.753225 110.594395,195.915481 110.594395,173.911246 C110.594395,151.907782 128.403169,134.069266 150.371669,134.069266 C172.340168,134.069266 190.148943,151.907782 190.148943,173.911246 C190.148943,195.915481 172.340168,213.753225 150.371669,213.753225 L150.371669,213.753225 Z M150.371669,164.51926 C151.566221,164.51926 152.534047,163.549087 152.534047,162.352592 C152.534047,161.156869 151.566221,160.186696 150.371669,160.186696 C149.177888,160.186696 148.20929,161.156869 148.20929,162.352592 C148.210062,163.549087 149.177888,164.51926 150.371669,164.51926 L150.371669,164.51926 Z M170.024326,146.109145 C165.9556,143.217936 161.223662,141.200347 156.10228,140.329817 L156.10228,157.872493 C156.628222,158.060966 157.141055,158.275702 157.640777,158.513611 L170.024326,146.109145 L170.024326,146.109145 Z M134.99904,166.629541 L122.615491,154.225075 C119.728207,158.301192 117.714666,163.040827 116.84555,168.171313 L134.361277,168.171313 C134.549444,167.644515 134.761518,167.130076 134.99904,166.629541 L134.99904,166.629541 Z M130.719012,201.712574 C134.788509,204.603783 139.520447,206.621372 144.6426,207.491902 L144.6426,189.949226 C144.116658,189.760753 143.603054,189.546017 143.103332,189.308109 L130.719012,201.712574 L130.719012,201.712574 Z M134.359735,179.649634 L116.84555,179.649634 C117.714666,184.780119 119.728978,189.518982 122.615491,193.595872 L134.999811,181.190633 C134.76306,180.690098 134.547902,180.176432 134.359735,179.649634 L134.359735,179.649634 Z M140.996478,173.909701 C140.996478,172.713206 140.028652,171.743805 138.8341,171.743805 C137.639548,171.743805 136.671722,172.713206 136.671722,173.909701 C136.671722,175.106196 137.639548,176.075597 138.8341,176.075597 C140.027881,176.075597 140.996478,175.106196 140.996478,173.909701 L140.996478,173.909701 Z M159.74763,173.909701 C159.74763,175.106196 160.715457,176.075597 161.910009,176.075597 C163.104561,176.075597 164.072387,175.106196 164.072387,173.909701 C164.072387,172.713206 163.104561,171.743805 161.910009,171.743805 C160.715457,171.744577 159.74763,172.713978 159.74763,173.909701 L159.74763,173.909701 Z M581.961262,168.800844 C579.144155,168.800844 576.859931,171.088784 576.859931,173.910473 C576.859931,176.732163 579.144155,179.020103 581.961262,179.020103 C584.778369,179.020103 587.062594,176.732163 587.062594,173.910473 C587.062594,171.088784 584.778369,168.800844 581.961262,168.800844 L581.961262,168.800844 Z M574.693697,158.514383 C575.193419,158.276474 575.706251,158.060966 576.231422,157.872493 L576.231422,140.329817 C571.109269,141.200347 566.378874,143.218709 562.308605,146.109917 L574.693697,158.514383 L574.693697,158.514383 Z M581.961262,183.300914 C580.76671,183.300914 579.798884,184.271087 579.798884,185.467583 C579.798884,186.663306 580.76671,187.633479 581.961262,187.633479 C583.155815,187.633479 584.123641,186.663306 584.123641,185.467583 C584.12287,184.271087 583.155043,183.300914 581.961262,183.300914 L581.961262,183.300914 Z M587.691102,189.949226 L587.691102,207.491902 C592.813255,206.621372 597.54288,204.60301 601.613148,201.711802 L589.228828,189.307336 C588.729106,189.544472 588.217045,189.760753 587.691102,189.949226 L587.691102,189.949226 Z M597.971654,179.649634 C597.783487,180.176432 597.570642,180.691643 597.334662,181.192178 L609.718211,193.595872 C612.605496,189.520527 614.618266,184.780119 615.488153,179.649634 L597.971654,179.649634 L597.971654,179.649634 Z M678.847998,109.034012 C671.289699,97.4444605 651.93703,93.403875 637.195223,88.5823621 C534.25244,63.6776488 500.016839,71.7843099 482.835031,69.3581048 C479.368593,68.4319603 476.277718,65.4009419 473.442874,63.6320754 C467.229507,59.7552453 460.781702,56.3449634 454.658562,52.5878601 C444.5415,46.3806063 397.859113,20.8054231 385.23727,16.1847422 C357.503457,6.03345684 313.658227,-2.10641874 208.009386,6.3686918 C203.721646,5.18841756 201.133578,1.72174821 196.575926,0.64188998 C192.06763,-0.426381792 187.927955,1.94961529 184.733743,2.68728669 C184.791581,6.15627333 184.482339,8.97178353 183.917067,11.6853329 C163.268821,20.4068488 142.374571,27.0976443 121.846628,35.8176154 C113.280402,39.4565368 104.44195,43.0166703 95.7114631,46.8610583 C90.2808395,49.2532764 85.0923653,52.650427 78.9692254,54.6332568 C72.3186009,56.7852489 65.0487218,55.8127586 57.7341145,57.4958853 C44.4182132,60.5601182 29.9794791,60.9695065 15.2646639,61.1772904 C13.5827284,64.0646366 10.6553431,66.9728385 9.95588617,70.5854973 C12.5046239,71.3733767 13.3583161,73.132974 13.222589,76.7201426 C8.71891937,83.4039861 9.92658147,92.9265128 9.95588617,103.715826 C0.36168169,108.63621 -1.09738389,126.665517 1.3804056,140.936948 C1.10818036,142.164341 0.835955121,143.391733 0.563729883,144.619126 C1.07656213,148.653532 2.38756186,152.916577 2.60503358,157.298577 C6.2079693,159.718603 10.292119,163.607019 12.8138656,167.1154 C14.0438918,168.826334 14.6423246,171.775475 16.8972441,172.432813 C28.9515011,181.246248 89.9931908,183.06764 89.9931908,183.06764 L93.2043689,183.243754 C92.7131296,180.205012 92.4540144,177.088254 92.4540144,173.911246 C92.4540144,141.872362 118.384818,115.900149 150.370898,115.900149 C182.357749,115.900149 208.287781,141.872362 208.287781,173.911246 C208.287781,179.291999 207.553621,188.028963 206.184012,192.973293 L527.049653,192.404784 C525.100891,186.596104 524.043608,180.378036 524.043608,173.912018 C524.043608,141.873134 549.97364,115.900922 581.960491,115.900922 C613.947342,115.900922 639.877375,141.873134 639.877375,173.912018 C639.877375,179.52759 639.078436,184.955461 637.591608,190.090581 L640.87065,190.021835 C640.87065,190.021835 666.149038,188.798304 672.313821,185.931041 C678.478605,183.06455 680.889302,174.887598 680.889302,174.887598 L679.255951,157.708738 C679.256722,157.707965 686.849724,121.304075 678.847998,109.034012 L678.847998,109.034012 Z M166.357383,66.9087268 C147.165118,54.1365838 157.333077,39.2232627 156.815618,39.270381 C156.50869,39.5438215 156.287362,39.7616469 156.148551,39.9091812 C156.555732,39.4773924 156.756238,39.275788 156.815618,39.270381 C161.760401,34.8567115 189.980827,15.115698 290.090308,14.9588945 C293.221284,32.5455986 296.35226,55.6505481 299.482464,73.2357073 C259.201612,72.0129494 179.915433,72.6950058 166.357383,66.9087268 L166.357383,66.9087268 Z M424.440789,73.4488982 C415.64321,73.4488982 328.067657,73.4249529 328.067657,73.4249529 C328.067657,73.4249529 313.931224,36.0933732 308.875392,15.3713726 C309.463799,15.4254427 326.842258,16.186287 326.842258,16.186287 C326.842258,16.186287 361.246746,20.109463 382.788014,27.2305024 C399.735385,32.8329428 433.194411,55.3493001 433.832174,56.6801984 C423.76601,57.1961821 421.383075,65.1383154 424.440789,73.4488982 L424.440789,73.4488982 Z M581.961262,118.132474 C551.205209,118.132474 526.273079,143.105161 526.273079,173.911246 C526.273079,204.71733 551.205209,229.690017 581.961262,229.690017 C612.717316,229.690017 637.649446,204.71733 637.649446,173.911246 C637.649446,143.105161 612.716545,118.132474 581.961262,118.132474 L581.961262,118.132474 Z M581.961262,213.753225 C559.993534,213.753225 542.183988,195.915481 542.183988,173.911246 C542.183988,151.907782 559.993534,134.069266 581.961262,134.069266 C603.929762,134.069266 621.738537,151.907782 621.738537,173.911246 C621.738537,195.915481 603.929762,213.753225 581.961262,213.753225 L581.961262,213.753225 Z M566.587863,166.629541 L554.203542,154.225075 C551.317029,158.301192 549.303488,163.040827 548.434372,168.171313 L565.9501,168.171313 C566.138267,167.644515 566.35034,167.130076 566.587863,166.629541 L566.587863,166.629541 Z M572.585301,173.909701 C572.585301,172.713206 571.616703,171.743805 570.422151,171.743805 C569.22837,171.743805 568.259773,172.713206 568.259773,173.909701 C568.259773,175.106196 569.22837,176.075597 570.422151,176.075597 C571.617475,176.075597 572.585301,175.106196 572.585301,173.909701 L572.585301,173.909701 Z M581.961262,164.51926 C583.155815,164.51926 584.123641,163.549087 584.123641,162.352592 C584.123641,161.156869 583.155815,160.186696 581.961262,160.186696 C580.76671,160.186696 579.798884,161.156869 579.798884,162.352592 C579.798884,163.549087 580.76671,164.51926 581.961262,164.51926 L581.961262,164.51926 Z M601.61392,146.109145 C597.544422,143.217936 592.813255,141.200347 587.691102,140.329817 L587.691102,157.872493 C588.217045,158.060966 588.729877,158.275702 589.229599,158.513611 L601.61392,146.109145 L601.61392,146.109145 Z M591.336453,173.909701 C591.336453,175.106196 592.30505,176.075597 593.499602,176.075597 C594.693383,176.075597 595.661981,175.106196 595.661981,173.909701 C595.661981,172.713206 594.693383,171.743805 593.499602,171.743805 C592.30505,171.744577 591.336453,172.713978 591.336453,173.909701 L591.336453,173.909701 Z M562.307834,201.712574 C566.377332,204.603783 571.109269,206.621372 576.231422,207.491902 L576.231422,189.949226 C575.704709,189.760753 575.191877,189.546017 574.692155,189.308109 L562.307834,201.712574 L562.307834,201.712574 Z M565.948558,179.649634 L548.434372,179.649634 C549.303488,184.780119 551.317801,189.518982 554.204313,193.595872 L566.588634,181.190633 C566.351112,180.690098 566.136725,180.176432 565.948558,179.649634 L565.948558,179.649634 Z M597.973196,168.171313 L615.487381,168.171313 C614.618266,163.040827 612.603953,158.302737 609.71744,154.225847 L597.33312,166.630313 C597.569871,167.130848 597.785029,167.644515 597.973196,168.171313 L597.973196,168.171313 Z" id="Shape"></path>
                    </g>
                </g>
            </g>
            <g id="Cart" transform="translate(146.000000, 278.000000)">
                <use id="Rectangle-3" stroke="#FFFFFF" mask="url(#mask-2)" stroke-width="40" xlink:href="#path-1"></use>
                <path d="M127.899942,240.65908 L723.172567,240.65908" id="Line" stroke="#FFFFFF" stroke-width="10" stroke-linecap="square"></path>
                <path d="M113.556023,143.439187 L745.086887,143.439187" id="Line" stroke="#FFFFFF" stroke-width="10" stroke-linecap="square"></path>
                <path d="M522.756147,328.316361 L585.710013,51.7974841" id="Line" stroke="#FFFFFF" stroke-width="10" stroke-linecap="square"></path>
                <path d="M273.331339,328.316361 L336.285205,51.7974841" id="Line" stroke="#FFFFFF" stroke-width="10" stroke-linecap="square"></path>
                <rect id="Rectangle-4" fill="#FFFFFF" transform="translate(117.601919, 240.778263) rotate(-10.000000) translate(-117.601919, -240.778263) " x="102.909851" y="9.39552396" width="29.3841362" height="462.765478" rx="14.6920681"></rect>
                <rect id="Rectangle-4" fill="#FFFFFF" x="142.642302" y="429.520676" width="498.849616" height="41.8596944" rx="20.9298472"></rect>
                <rect id="Rectangle-4" fill="#FFFFFF" x="-4.52976321e-14" y="0" width="87.4897486" height="41.8596944" rx="20.9298472"></rect>
                <ellipse id="Oval-6" fill="#FFFFFF" cx="222.729182" cy="521.560821" rx="42.6333139" ry="42.6333139"></ellipse>
                <ellipse id="Oval-6" fill="#FFFFFF" cx="523.15459" cy="521.560821" rx="42.6333139" ry="42.6333139"></ellipse>
            </g>
        </g>
    </g>
</svg>