<?xml version="1.0" encoding="UTF-8"?>
<svg width="1100px" height="950px" viewBox="0 0 1100 950" version="1.1" xmlns="http://www.w3.org/2000/svg" xmlns:xlink="http://www.w3.org/1999/xlink">
    <!-- Generator: Sketch 40.3 (33839) - http://www.bohemiancoding.com/sketch -->
    <title>addToCart</title>
    <desc>Created with Sketch.</desc>
    <defs>
        <polygon id="path-1" points="993 262 935.392822 635 200.607178 635 143 262"></polygon>
        <mask id="mask-2" maskContentUnits="userSpaceOnUse" maskUnits="objectBoundingBox" x="0" y="0" width="850" height="373" fill="white">
            <use xlink:href="#path-1"></use>
        </mask>
    </defs>
    <g id="Page-1" stroke="none" stroke-width="1" fill="none" fill-rule="evenodd">
        <g id="addToCart">
            <use id="Rectangle-3" stroke="#FFFFFF" mask="url(#mask-2)" stroke-width="40" xlink:href="#path-1"></use>
            <path d="M193.5,511 L940.5,511" id="Line" stroke="#FFFFFF" stroke-width="10" stroke-linecap="square"></path>
            <path d="M175.5,389 L968,389" id="Line" stroke="#FFFFFF" stroke-width="10" stroke-linecap="square"></path>
            <path d="M689,621 L768,274" id="Line" stroke="#FFFFFF" stroke-width="10" stroke-linecap="square"></path>
            <path d="M376,621 L455,274" id="Line" stroke="#FFFFFF" stroke-width="10" stroke-linecap="square"></path>
            <rect id="Rectangle-4" fill="#FFFFFF" transform="translate(180.577143, 511.149561) rotate(-10.000000) translate(-180.577143, -511.149561) " x="162.140255" y="220.790323" width="36.8737765" height="580.718476" rx="18.4368882"></rect>
            <rect id="Rectangle-4" fill="#FFFFFF" x="212" y="748" width="626" height="52.5291948" rx="26.2645974"></rect>
            <rect id="Rectangle-4" fill="#FFFFFF" x="33" y="209" width="109.789766" height="52.5291948" rx="26.2645974"></rect>
            <circle id="Oval-6" fill="#FFFFFF" cx="312.5" cy="863.5" r="53.5"></circle>
            <circle id="Oval-6" fill="#FFFFFF" cx="689.5" cy="863.5" r="53.5"></circle>
            <g id="addButton" transform="translate(689.000000, 81.000000)">
                <circle id="Oval-8" fill="#26B7AD" cx="180.5" cy="180.5" r="180.5"></circle>
                <rect id="Rectangle" fill="#FFFFFF" x="159" y="26" width="44" height="308" rx="8"></rect>
                <rect id="Rectangle" fill="#FFFFFF" transform="translate(181.000000, 180.000000) rotate(90.000000) translate(-181.000000, -180.000000) " x="159" y="26" width="44" height="308" rx="8"></rect>
            </g>
        </g>
    </g>
</svg>