<?xml version="1.0" encoding="UTF-8"?>
<svg width="1100px" height="950px" viewBox="0 0 1100 950" version="1.1" xmlns="http://www.w3.org/2000/svg" xmlns:xlink="http://www.w3.org/1999/xlink">
    <!-- Generator: Sketch 40.3 (33839) - http://www.bohemiancoding.com/sketch -->
    <title>addToFavorites</title>
    <desc>Created with Sketch.</desc>
    <defs></defs>
    <g id="Page-1" stroke="none" stroke-width="1" fill="none" fill-rule="evenodd">
        <g id="addToFavorites">
            <path d="M737.28,93 C660.87,93 592.95,131.2 550.5,190.622222 C508.05,131.2 440.13,93 363.72,93 C232.125,93 126,199.111111 126,330.688889 C126,517.444444 550.5,857 550.5,857 C550.5,857 975,517.444444 975,330.688889 C975,199.111111 868.875,93 737.28,93 L737.28,93 Z" id="Heart" fill="#FFFFFF"></path>
            <g id="addButton" transform="translate(689.000000, 81.000000)">
                <circle id="Oval-8" fill="#26B7AD" cx="180.5" cy="180.5" r="180.5"></circle>
                <rect id="Rectangle" fill="#FFFFFF" x="159" y="26" width="44" height="308" rx="8"></rect>
                <rect id="Rectangle" fill="#FFFFFF" transform="translate(181.000000, 180.000000) rotate(90.000000) translate(-181.000000, -180.000000) " x="159" y="26" width="44" height="308" rx="8"></rect>
            </g>
        </g>
    </g>
</svg>