<?xml version="1.0" encoding="UTF-8"?>
<svg width="1100px" height="950px" viewBox="0 0 1100 950" version="1.1" xmlns="http://www.w3.org/2000/svg" xmlns:xlink="http://www.w3.org/1999/xlink">
    <!-- Generator: Sketch 40.3 (33839) - http://www.bohemiancoding.com/sketch -->
    <title>Shop Icon "Cart"</title>
    <desc>Created with Sketch.</desc>
    <defs>
        <polygon id="path-1" points="993 262 935.392822 635 200.607178 635 143 262"></polygon>
        <mask id="mask-2" maskContentUnits="userSpaceOnUse" maskUnits="objectBoundingBox" x="0" y="0" width="850" height="373" fill="white">
            <use xlink:href="#path-1"></use>
        </mask>
    </defs>
    <g id="Page-1" stroke="none" stroke-width="1" fill="none" fill-rule="evenodd">
        <g id="Shop-Icon-&quot;Cart&quot;">
            <g id="1477926710_sedan" transform="translate(593.417682, 360.956799) rotate(-28.000000) translate(-593.417682, -360.956799) translate(160.917682, 214.956799)" fill="#323232">
                <g id="Shape_1_5_" transform="translate(0.000000, 0.000000)">
                    <g id="Shape_1" transform="translate(-0.000000, 0.000000)">
                        <path d="M190.554447,213.908323 C186.984544,213.908323 184.089922,216.807653 184.089922,220.383363 C184.089922,223.959073 186.984544,226.858404 190.554447,226.858404 C194.12435,226.858404 197.018972,223.959073 197.018972,220.383363 C197.018972,216.807653 194.125327,213.908323 190.554447,213.908323 L190.554447,213.908323 Z M190.554447,232.283147 C189.04166,232.283147 187.814231,233.512572 187.814231,235.028799 C187.814231,236.544046 189.040683,237.773472 190.554447,237.773472 C192.068211,237.773472 193.294663,236.544046 193.294663,235.028799 C193.294663,233.512572 192.068211,232.283147 190.554447,232.283147 L190.554447,232.283147 Z M197.81641,240.70804 L197.81641,262.938523 C204.30732,261.835368 210.301787,259.277654 215.458748,255.613848 L199.765051,239.894623 C199.131792,240.195127 198.482896,240.469203 197.81641,240.70804 L197.81641,240.70804 Z M210.036951,229.610908 L225.72967,245.329154 C229.388503,240.164783 231.939132,234.157629 233.041473,227.65616 L210.845139,227.65616 C210.605712,228.32373 210.336968,228.976618 210.036951,229.610908 L210.036951,229.610908 Z M210.034997,211.157776 C210.335013,211.792066 210.606689,212.442996 210.846116,213.110566 L233.041473,213.110566 C231.940109,206.609097 229.386549,200.60488 225.728693,195.438551 L210.034997,211.157776 L210.034997,211.157776 Z M181.34482,200.873082 C181.979057,200.571599 182.627953,200.298502 183.294439,200.059664 L183.294439,177.829181 C176.803529,178.932337 170.809062,181.490051 165.652101,185.153857 L181.34482,200.873082 L181.34482,200.873082 Z M190.554447,149.700196 C151.580644,149.700196 119.985096,181.346161 119.985096,220.384342 C119.985096,259.422523 151.580644,291.068488 190.554447,291.068488 C229.529228,291.068488 261.123798,259.422523 261.123798,220.384342 C261.123798,181.346161 229.529228,149.700196 190.554447,149.700196 L190.554447,149.700196 Z M190.554447,270.873018 C162.715458,270.873018 140.147768,248.268617 140.147768,220.384342 C140.147768,192.501046 162.715458,169.895666 190.554447,169.895666 C218.393437,169.895666 240.961126,192.501046 240.961126,220.384342 C240.961126,248.268617 218.393437,270.873018 190.554447,270.873018 L190.554447,270.873018 Z M190.554447,208.482601 C192.068211,208.482601 193.294663,207.253175 193.294663,205.736949 C193.294663,204.221701 192.068211,202.992275 190.554447,202.992275 C189.04166,202.992275 187.814231,204.221701 187.814231,205.736949 C187.815209,207.253175 189.04166,208.482601 190.554447,208.482601 L190.554447,208.482601 Z M215.458748,185.152878 C210.302764,181.489072 204.306343,178.932337 197.81641,177.829181 L197.81641,200.059664 C198.482896,200.298502 199.132769,200.57062 199.766028,200.872103 L215.458748,185.152878 L215.458748,185.152878 Z M171.073898,211.156797 L155.381178,195.437572 C151.722345,200.602922 149.170739,206.609097 148.069376,213.110566 L170.26571,213.110566 C170.504159,212.442996 170.772904,211.791087 171.073898,211.156797 L171.073898,211.156797 Z M165.650147,255.614827 C170.807108,259.278633 176.803529,261.835368 183.294439,262.938523 L183.294439,240.70804 C182.627953,240.469203 181.977103,240.197085 181.343843,239.895602 L165.650147,255.614827 L165.650147,255.614827 Z M170.263755,227.65616 L148.069376,227.65616 C149.170739,234.157629 151.723323,240.162825 155.381178,245.329154 L171.074875,229.60895 C170.774858,228.97466 170.502205,228.32373 170.263755,227.65616 L170.263755,227.65616 Z M178.67399,220.382384 C178.67399,218.866158 177.447538,217.637711 175.933774,217.637711 C174.42001,217.637711 173.193558,218.866158 173.193558,220.382384 C173.193558,221.898611 174.42001,223.127057 175.933774,223.127057 C177.446561,223.127057 178.67399,221.898611 178.67399,220.382384 L178.67399,220.382384 Z M202.435882,220.382384 C202.435882,221.898611 203.662334,223.127057 205.176098,223.127057 C206.689862,223.127057 207.916313,221.898611 207.916313,220.382384 C207.916313,218.866158 206.689862,217.637711 205.176098,217.637711 C203.662334,217.63869 202.435882,218.867137 202.435882,220.382384 L202.435882,220.382384 Z M737.474735,213.908323 C733.904832,213.908323 731.01021,216.807653 731.01021,220.383363 C731.01021,223.959073 733.904832,226.858404 737.474735,226.858404 C741.044638,226.858404 743.93926,223.959073 743.93926,220.383363 C743.93926,216.807653 741.044638,213.908323 737.474735,213.908323 L737.474735,213.908323 Z M728.265108,200.873082 C728.898368,200.571599 729.548241,200.298502 730.213749,200.059664 L730.213749,177.829181 C723.722839,178.932337 717.728373,181.490051 712.570434,185.153857 L728.265108,200.873082 L728.265108,200.873082 Z M737.474735,232.283147 C735.960971,232.283147 734.734519,233.512572 734.734519,235.028799 C734.734519,236.544046 735.960971,237.773472 737.474735,237.773472 C738.988499,237.773472 740.214951,236.544046 740.214951,235.028799 C740.213973,233.512572 738.987522,232.283147 737.474735,232.283147 L737.474735,232.283147 Z M744.73572,240.70804 L744.73572,262.938523 C751.226631,261.835368 757.22012,259.277654 762.378058,255.613848 L746.684362,239.894623 C746.051102,240.195127 745.402206,240.469203 744.73572,240.70804 L744.73572,240.70804 Z M757.763472,227.65616 C757.525023,228.32373 757.255301,228.976618 756.956262,229.610908 L772.648981,245.329154 C776.307814,240.164783 778.858443,234.157629 779.960783,227.65616 L757.763472,227.65616 L757.763472,227.65616 Z M860.251841,138.170415 C850.67379,123.483868 826.149641,118.363545 807.468484,112.253612 C677.017015,80.6937853 633.632871,90.9667332 611.859688,87.8921901 C607.466938,86.7185585 603.55011,82.8775821 599.95773,80.6360336 C592.084008,75.7232251 583.9132,71.4016372 576.153816,66.6405492 C563.333242,58.7745741 504.176245,26.3651121 488.181554,20.5096786 C453.036626,7.64573567 397.47494,-2.66930242 263.594292,8.07055314 C258.160769,6.57488241 254.88111,2.18183905 249.105548,0.813417788 C243.39253,-0.540320841 238.146639,2.47059747 234.09886,3.40539168 C234.172154,7.80137156 233.780276,11.369251 233.06395,14.8079233 C206.898016,25.8600295 180.42034,34.3387598 154.406858,45.3889083 C143.551538,50.0002335 132.351248,54.5117167 121.287774,59.3834139 C114.405962,62.4148879 107.831008,66.7198355 100.071624,69.2325231 C91.6437991,71.9595772 82.4312407,70.727215 73.1620016,72.860112 C56.2877842,76.7431786 37.9906874,77.2619649 19.3437342,77.5252734 C17.2123467,81.1841852 13.5026965,84.8695257 12.6163286,89.4475703 C15.8461478,90.4459892 16.9279662,92.6757915 16.7559698,97.2215342 C11.0488157,105.691455 12.579193,117.75862 12.6163286,131.431087 C0.45833138,137.666311 -1.39063018,160.513465 1.74928181,178.598551 C1.40431171,180.153931 1.05934161,181.709312 0.714371511,183.264692 C1.36424436,188.377184 3.02557346,193.779414 3.30115864,199.332385 C7.86688189,202.399097 13.0424106,207.326588 16.238026,211.772489 C17.7967436,213.940624 18.5550915,217.677843 21.4125775,218.510838 C36.6880099,229.679427 114.041447,231.987536 114.041447,231.987536 L118.110726,232.210712 C117.488216,228.359947 117.15986,224.410319 117.15986,220.384342 C117.15986,179.783929 150.019972,146.871342 190.55347,146.871342 C231.087945,146.871342 263.94708,179.783929 263.94708,220.384342 C263.94708,227.202956 263.016736,238.274639 261.281136,244.540207 L667.889477,243.81978 C665.41996,236.458887 664.080147,228.579208 664.080147,220.385321 C664.080147,179.784908 696.939282,146.872321 737.473758,146.872321 C778.008233,146.872321 810.867368,179.784908 810.867368,220.385321 C810.867368,227.501503 809.854934,234.379826 807.970792,240.887169 L812.126069,240.800052 C812.126069,240.800052 844.159426,239.249566 851.971582,235.616104 C859.783737,231.983621 862.838628,221.621598 862.838628,221.621598 L860.768808,199.85215 C860.769785,199.851171 870.391812,153.719322 860.251841,138.170415 L860.251841,138.170415 Z M210.811912,84.7882818 C186.491032,68.6031277 199.376105,49.7046232 198.720368,49.7643325 C198.331422,50.1108426 198.05095,50.3868761 197.875045,50.573835 C198.391034,50.0266622 198.64512,49.7711844 198.720368,49.7643325 C204.986511,44.1712288 240.748085,19.1549611 367.60913,18.9562562 C371.576774,41.2425332 375.544419,70.5216582 379.511087,92.8059775 C328.466262,91.2564705 227.992987,92.120788 210.811912,84.7882818 L210.811912,84.7882818 Z M537.861158,93.0761379 C526.712662,93.0761379 415.734902,93.0457938 415.734902,93.0457938 C415.734902,93.0457938 397.820888,45.738355 391.414021,19.4789579 C392.159665,19.5474768 414.182048,20.5116363 414.182048,20.5116363 C414.182048,20.5116363 457.780209,25.4831753 485.077801,34.5071207 C506.5539,41.6066624 548.95395,70.1399098 549.762138,71.8264547 C537.006062,72.4803212 533.986352,82.5447757 537.861158,93.0761379 L537.861158,93.0761379 Z M737.474735,149.700196 C698.499954,149.700196 666.905384,181.346161 666.905384,220.384342 C666.905384,259.422523 698.499954,291.068488 737.474735,291.068488 C776.449515,291.068488 808.044086,259.422523 808.044086,220.384342 C808.044086,181.346161 776.448538,149.700196 737.474735,149.700196 L737.474735,149.700196 Z M737.474735,270.873018 C709.636723,270.873018 687.068056,248.268617 687.068056,220.384342 C687.068056,192.501046 709.636723,169.895666 737.474735,169.895666 C765.313724,169.895666 787.881414,192.501046 787.881414,220.384342 C787.881414,248.268617 765.313724,270.873018 737.474735,270.873018 L737.474735,270.873018 Z M717.993208,211.156797 L702.299512,195.437572 C698.641656,200.602922 696.09005,206.609097 694.988686,213.110566 L717.18502,213.110566 C717.42347,212.442996 717.692214,211.791087 717.993208,211.156797 L717.993208,211.156797 Z M725.5933,220.382384 C725.5933,218.866158 724.365871,217.637711 722.852107,217.637711 C721.33932,217.637711 720.111891,218.866158 720.111891,220.382384 C720.111891,221.898611 721.33932,223.127057 722.852107,223.127057 C724.366848,223.127057 725.5933,221.898611 725.5933,220.382384 L725.5933,220.382384 Z M737.474735,208.482601 C738.988499,208.482601 740.214951,207.253175 740.214951,205.736949 C740.214951,204.221701 738.988499,202.992275 737.474735,202.992275 C735.960971,202.992275 734.734519,204.221701 734.734519,205.736949 C734.734519,207.253175 735.960971,208.482601 737.474735,208.482601 L737.474735,208.482601 Z M762.379035,185.152878 C757.222074,181.489072 751.226631,178.932337 744.73572,177.829181 L744.73572,200.059664 C745.402206,200.298502 746.052079,200.57062 746.685339,200.872103 L762.379035,185.152878 L762.379035,185.152878 Z M749.355192,220.382384 C749.355192,221.898611 750.582621,223.127057 752.096385,223.127057 C753.609172,223.127057 754.836601,221.898611 754.836601,220.382384 C754.836601,218.866158 753.609172,217.637711 752.096385,217.637711 C750.582621,217.63869 749.355192,218.867137 749.355192,220.382384 L749.355192,220.382384 Z M712.569457,255.614827 C717.726418,259.278633 723.722839,261.835368 730.213749,262.938523 L730.213749,240.70804 C729.546286,240.469203 728.896413,240.197085 728.263154,239.895602 L712.569457,255.614827 L712.569457,255.614827 Z M717.183066,227.65616 L694.988686,227.65616 C696.09005,234.157629 698.642633,240.162825 702.300489,245.329154 L717.994185,229.60895 C717.693192,228.97466 717.421515,228.32373 717.183066,227.65616 L717.183066,227.65616 Z M757.765427,213.110566 L779.959806,213.110566 C778.858443,206.609097 776.305859,200.60488 772.648004,195.438551 L756.954307,211.157776 C757.254324,211.792066 757.526977,212.442996 757.765427,213.110566 L757.765427,213.110566 Z" id="Shape"></path>
                    </g>
                </g>
            </g>
            <use id="Rectangle-3" stroke="#FFFFFF" mask="url(#mask-2)" stroke-width="40" xlink:href="#path-1"></use>
            <path d="M193.5,511 L940.5,511" id="Line" stroke="#FFFFFF" stroke-width="10" stroke-linecap="square"></path>
            <path d="M175.5,389 L968,389" id="Line" stroke="#FFFFFF" stroke-width="10" stroke-linecap="square"></path>
            <path d="M689,621 L768,274" id="Line" stroke="#FFFFFF" stroke-width="10" stroke-linecap="square"></path>
            <path d="M376,621 L455,274" id="Line" stroke="#FFFFFF" stroke-width="10" stroke-linecap="square"></path>
            <rect id="Rectangle-4" fill="#FFFFFF" transform="translate(180.577143, 511.149561) rotate(-10.000000) translate(-180.577143, -511.149561) " x="162.140255" y="220.790323" width="36.8737765" height="580.718476" rx="18.4368882"></rect>
            <rect id="Rectangle-4" fill="#FFFFFF" x="212" y="748" width="626" height="52.5291948" rx="26.2645974"></rect>
            <rect id="Rectangle-4" fill="#FFFFFF" x="33" y="209" width="109.789766" height="52.5291948" rx="26.2645974"></rect>
            <circle id="Oval-6" fill="#FFFFFF" cx="312.5" cy="863.5" r="53.5"></circle>
            <circle id="Oval-6" fill="#FFFFFF" cx="689.5" cy="863.5" r="53.5"></circle>
        </g>
    </g>
</svg>