<?xml version="1.0" encoding="UTF-8"?>
<svg xmlns="http://www.w3.org/2000/svg" xmlns:xlink="http://www.w3.org/1999/xlink" width="409.600006pt" height="409.600006pt" viewBox="0 0 409.600006 409.600006" version="1.1">
<g id="surface1">
<path style=" stroke:none;fill-rule:nonzero;fill:rgb(78%,78%,78%);fill-opacity:1;" d="M 110.238281 409.519531 L 55.601562 409.519531 C 47.601562 409.519531 41.121094 402.960938 41.121094 395.039062 L 41.121094 283.199219 C 41.121094 275.199219 47.679688 268.71875 55.601562 268.71875 L 110.238281 268.71875 C 118.238281 268.71875 124.71875 275.28125 124.71875 283.199219 L 124.71875 395.039062 C 124.800781 403.039062 118.238281 409.519531 110.238281 409.519531 Z M 110.238281 409.519531 "/>
<path style=" stroke:none;fill-rule:nonzero;fill:rgb(78%,78%,78%);fill-opacity:1;" d="M 229.519531 409.519531 L 180.078125 409.519531 C 170.71875 409.519531 162.960938 401.839844 162.960938 392.398438 L 162.960938 231.039062 C 162.960938 221.679688 170.640625 213.921875 180.078125 213.921875 L 229.519531 213.921875 C 238.878906 213.921875 246.640625 221.601562 246.640625 231.039062 L 246.640625 392.398438 C 246.640625 401.839844 238.960938 409.519531 229.519531 409.519531 Z M 229.519531 409.519531 "/>
<path style=" stroke:none;fill-rule:nonzero;fill:rgb(78%,78%,78%);fill-opacity:1;" d="M 349.199219 409.519531 L 304.160156 409.519531 C 293.519531 409.519531 284.878906 400.800781 284.878906 390.238281 L 284.878906 179.441406 C 284.878906 168.800781 293.601562 160.160156 304.160156 160.160156 L 349.199219 160.160156 C 359.839844 160.160156 368.480469 168.878906 368.480469 179.441406 L 368.480469 390.238281 C 368.480469 400.878906 359.839844 409.519531 349.199219 409.519531 Z M 349.199219 409.519531 "/>
<path style=" stroke:none;fill-rule:nonzero;fill:rgb(78%,78%,78%);fill-opacity:1;" d="M 356.078125 0 C 338.480469 0.71875 324.800781 15.601562 325.519531 33.28125 L 244.238281 113.199219 L 174.960938 52.558594 L 48.160156 179.761719 C 31.839844 181.839844 19.601562 195.921875 20.238281 212.640625 C 20.960938 230.238281 35.921875 243.921875 53.519531 243.199219 C 71.121094 242.480469 84.800781 227.519531 84.078125 209.921875 C 84 208.480469 83.679688 207.121094 83.441406 205.679688 L 178.878906 114.078125 L 245.839844 172.71875 L 356.800781 63.761719 C 357.441406 63.761719 358.078125 63.921875 358.71875 63.839844 C 376.320312 63.121094 390 48.160156 389.28125 30.558594 C 388.558594 12.960938 373.679688 -0.71875 356.078125 0 Z M 356.078125 0 "/>
</g>
</svg>
