<?xml version="1.0" encoding="UTF-8"?>
<svg width="1330px" height="600px" viewBox="0 0 1330 600" version="1.1" xmlns="http://www.w3.org/2000/svg" xmlns:xlink="http://www.w3.org/1999/xlink">
    <!-- Generator: Sketch 40.3 (33839) - http://www.bohemiancoding.com/sketch -->
    <title>Shop Icon "Gift"</title>
    <desc>Created with Sketch.</desc>
    <defs></defs>
    <g id="Page-1" stroke="none" stroke-width="1" fill="none" fill-rule="evenodd">
        <g id="Shop-Icon-&quot;Gift&quot;">
            <g id="1477926710_sedan" transform="translate(60.000000, 166.000000)" fill="#323232">
                <g id="Shape_1_5_">
                    <g id="Shape_1">
                        <path d="M266.493766,299.459863 C261.501193,299.459863 257.453014,303.518766 257.453014,308.524563 C257.453014,313.53036 261.501193,317.589263 266.493766,317.589263 C271.486339,317.589263 275.534518,313.53036 275.534518,308.524563 C275.534518,303.518766 271.487705,299.459863 266.493766,299.459863 L266.493766,299.459863 Z M266.493766,325.183604 C264.378107,325.183604 262.661526,326.904732 262.661526,329.027366 C262.661526,331.148629 264.37674,332.869757 266.493766,332.869757 C268.610792,332.869757 270.326006,331.148629 270.326006,329.027366 C270.326006,326.904732 268.610792,325.183604 266.493766,325.183604 L266.493766,325.183604 Z M276.649749,336.977991 L276.649749,368.099443 C285.727403,366.555086 294.11077,362.974427 301.322871,357.845301 L279.374959,335.839251 C278.489334,336.259941 277.581842,336.643632 276.649749,336.977991 L276.649749,336.977991 Z M293.740393,321.442617 L315.686938,343.447296 C320.803881,336.217461 324.37098,327.807777 325.912623,318.706078 L294.870658,318.706078 C294.535815,319.640639 294.159971,320.554646 293.740393,321.442617 L293.740393,321.442617 Z M293.737659,295.60925 C294.157238,296.497221 294.537182,297.408487 294.872024,298.343048 L325.912623,298.343048 C324.372347,289.24135 320.801147,280.835776 315.685571,273.603201 L293.737659,295.60925 L293.737659,295.60925 Z M253.61394,281.211245 C254.500932,280.789185 255.408424,280.406864 256.340516,280.072505 L256.340516,248.951054 C247.262863,250.49541 238.879496,254.076069 231.667395,259.205196 L253.61394,281.211245 L253.61394,281.211245 Z M266.493766,209.572024 C211.988213,209.572024 167.80128,253.874632 167.80128,308.525933 C167.80128,363.177235 211.988213,407.479842 266.493766,407.479842 C321.000686,407.479842 365.186252,363.177235 365.186252,308.525933 C365.186252,253.874632 321.000686,209.572024 266.493766,209.572024 L266.493766,209.572024 Z M266.493766,379.207297 C227.560447,379.207297 195.999133,347.562382 195.999133,308.525933 C195.999133,269.490855 227.560447,237.84457 266.493766,237.84457 C305.427085,237.84457 336.988399,269.490855 336.988399,308.525933 C336.988399,347.562382 305.427085,379.207297 266.493766,379.207297 L266.493766,379.207297 Z M266.493766,291.864152 C268.610792,291.864152 270.326006,290.143024 270.326006,288.02039 C270.326006,285.899127 268.610792,284.177999 266.493766,284.177999 C264.378107,284.177999 262.661526,285.899127 262.661526,288.02039 C262.662893,290.143024 264.378107,291.864152 266.493766,291.864152 L266.493766,291.864152 Z M301.322871,259.203826 C294.112136,254.074699 285.726036,250.49541 276.649749,248.951054 L276.649749,280.072505 C277.581842,280.406864 278.490701,280.787815 279.376325,281.209875 L301.322871,259.203826 L301.322871,259.203826 Z M239.249873,295.60788 L217.303327,273.60183 C212.186385,280.833035 208.617919,289.24135 207.077642,298.343048 L238.119608,298.343048 C238.453084,297.408487 238.828928,296.49585 239.249873,295.60788 L239.249873,295.60788 Z M231.664661,357.846671 C238.876762,362.975797 247.262863,366.555086 256.340516,368.099443 L256.340516,336.977991 C255.408424,336.643632 254.498198,336.262682 253.612573,335.840622 L231.664661,357.846671 L231.664661,357.846671 Z M238.116875,318.706078 L207.077642,318.706078 C208.617919,327.807777 212.187751,336.21472 217.303327,343.447296 L239.25124,321.439876 C238.831661,320.551906 238.450351,319.640639 238.116875,318.706078 L238.116875,318.706078 Z M249.878736,308.523193 C249.878736,306.400559 248.163521,304.680801 246.046496,304.680801 C243.92947,304.680801 242.214256,306.400559 242.214256,308.523193 C242.214256,310.645826 243.92947,312.365584 246.046496,312.365584 C248.162155,312.365584 249.878736,310.645826 249.878736,308.523193 L249.878736,308.523193 Z M283.110163,308.523193 C283.110163,310.645826 284.825377,312.365584 286.942403,312.365584 C289.059429,312.365584 290.774643,310.645826 290.774643,308.523193 C290.774643,306.400559 289.059429,304.680801 286.942403,304.680801 C284.825377,304.682172 283.110163,306.40193 283.110163,308.523193 L283.110163,308.523193 Z M1031.37147,299.459863 C1026.37889,299.459863 1022.33071,303.518766 1022.33071,308.524563 C1022.33071,313.53036 1026.37889,317.589263 1031.37147,317.589263 C1036.36404,317.589263 1040.41222,313.53036 1040.41222,308.524563 C1040.41222,303.518766 1036.36404,299.459863 1031.37147,299.459863 L1031.37147,299.459863 Z M1018.49164,281.211245 C1019.37726,280.789185 1020.28612,280.406864 1021.21685,280.072505 L1021.21685,248.951054 C1012.1392,250.49541 1003.75583,254.076069 996.542361,259.205196 L1018.49164,281.211245 L1018.49164,281.211245 Z M1031.37147,325.183604 C1029.25444,325.183604 1027.53923,326.904732 1027.53923,329.027366 C1027.53923,331.148629 1029.25444,332.869757 1031.37147,332.869757 C1033.48849,332.869757 1035.20371,331.148629 1035.20371,329.027366 C1035.20234,326.904732 1033.48712,325.183604 1031.37147,325.183604 L1031.37147,325.183604 Z M1041.52608,336.977991 L1041.52608,368.099443 C1050.60374,366.555086 1058.98574,362.974427 1066.1992,357.845301 L1044.25129,335.839251 C1043.36567,336.259941 1042.45818,336.643632 1041.52608,336.977991 L1041.52608,336.977991 Z M1059.74562,318.706078 C1059.41215,319.640639 1059.03494,320.554646 1058.61673,321.442617 L1080.56327,343.447296 C1085.68021,336.217461 1089.24731,327.807777 1090.78896,318.706078 L1059.74562,318.706078 L1059.74562,318.706078 Z M1203.07742,193.430966 C1189.68235,172.87061 1155.38489,165.70244 1129.25896,157.148871 C946.820274,112.966852 886.146782,127.348413 855.696599,123.044223 C849.553261,121.401203 844.075509,116.024048 839.051502,112.886003 C828.039961,106.008342 816.612943,99.9583572 805.761307,93.2930964 C787.831507,82.2811647 705.099399,36.9097039 682.730542,28.7124198 C633.579738,10.7036086 555.875737,-3.73687628 368.641282,11.2983296 C361.042403,9.20447303 356.455742,3.05445443 348.378517,1.13874008 C340.38876,-0.756419401 333.052289,3.4587003 327.391398,4.76736068 C327.493901,10.9214903 326.945852,15.9163249 325.944058,20.7302766 C289.350537,36.2026162 252.321037,48.0723714 215.940723,63.5419703 C200.759366,69.9975714 185.095562,76.3133993 169.623098,83.1335069 C159.998763,87.3774034 150.803573,93.4040927 139.951937,96.921717 C128.165475,100.739442 115.281549,99.0142033 102.318354,102.000141 C78.7194622,107.436221 53.1306485,108.162493 27.0525545,108.53111 C24.0717714,113.653385 18.88376,118.812659 17.6441588,125.221669 C22.1611181,126.6194 23.6740603,129.741001 23.4335202,136.10479 C15.4519643,147.962212 17.592224,164.855579 17.6441588,183.996279 C0.640984544,192.725249 -1.94482091,224.710005 2.44640157,250.028129 C1.96395478,252.205576 1.48150799,254.383022 0.999061198,256.560469 C1.90791988,263.717676 4.23131802,271.2805 4.61672876,279.054354 C11.0019735,283.347582 18.2400421,290.245798 22.7091667,296.469814 C24.8890608,299.505084 25.9496238,304.736985 29.9458685,305.903131 C51.308831,321.53854 159.488982,324.769766 159.488982,324.769766 L165.17994,325.0822 C164.309349,319.691342 163.850137,314.16208 163.850137,308.525933 C163.850137,251.687593 209.805585,205.611785 266.492399,205.611785 C323.18058,205.611785 369.134662,251.687593 369.134662,308.525933 C369.134662,318.071617 367.833559,333.571363 365.406291,342.342814 L934.055252,341.334255 C930.601589,331.029411 928.727836,319.998294 928.727836,308.527304 C928.727836,251.688963 974.681918,205.613155 1031.3701,205.613155 C1088.05828,205.613155 1134.01236,251.688963 1134.01236,308.527304 C1134.01236,318.489566 1132.59646,328.11884 1129.96145,337.228761 L1135.77268,337.106802 C1135.77268,337.106802 1180.57189,334.936207 1191.49733,329.849561 C1202.42277,324.764285 1206.69509,310.258024 1206.69509,310.258024 L1203.80041,279.781996 C1203.80178,279.780626 1217.25835,215.198579 1203.07742,193.430966 L1203.07742,193.430966 Z M294.82419,118.698922 C260.811008,96.040598 278.83101,69.5837332 277.913951,69.6673231 C277.370003,70.1524181 276.977758,70.5388498 276.731752,70.8005818 C277.453372,70.0345702 277.808715,69.6769153 277.913951,69.6673231 C286.677262,61.837286 336.690457,26.81589 514.107872,26.537714 C519.656694,57.7372736 525.205515,98.7264351 530.75297,129.923254 C459.365879,127.75403 318.852226,128.964027 294.82419,118.698922 L294.82419,118.698922 Z M752.208346,130.301464 C736.616978,130.301464 581.412616,130.258984 581.412616,130.258984 C581.412616,130.258984 556.359551,64.0311763 547.399434,27.2694675 C548.44223,27.3653903 579.240922,28.7151604 579.240922,28.7151604 C579.240922,28.7151604 640.213723,35.6750411 678.389888,48.3080673 C708.424592,58.2470345 767.721812,98.1920083 768.852077,100.553078 C751.01248,101.468455 746.789362,115.558137 752.208346,130.301464 L752.208346,130.301464 Z M1031.37147,209.572024 C976.864546,209.572024 932.67898,253.874632 932.67898,308.525933 C932.67898,363.177235 976.864546,407.479842 1031.37147,407.479842 C1085.87839,407.479842 1130.06395,363.177235 1130.06395,308.525933 C1130.06395,253.874632 1085.87702,209.572024 1031.37147,209.572024 L1031.37147,209.572024 Z M1031.37147,379.207297 C992.439513,379.207297 960.876833,347.562382 960.876833,308.525933 C960.876833,269.490855 992.439513,237.84457 1031.37147,237.84457 C1070.30479,237.84457 1101.8661,269.490855 1101.8661,308.525933 C1101.8661,347.562382 1070.30479,379.207297 1031.37147,379.207297 L1031.37147,379.207297 Z M1004.12621,295.60788 L982.178294,273.60183 C977.062718,280.833035 973.494252,289.24135 971.953975,298.343048 L1002.99594,298.343048 C1003.32942,297.408487 1003.70526,296.49585 1004.12621,295.60788 L1004.12621,295.60788 Z M1014.75507,308.523193 C1014.75507,306.400559 1013.03849,304.680801 1010.92146,304.680801 C1008.8058,304.680801 1007.08922,306.400559 1007.08922,308.523193 C1007.08922,310.645826 1008.8058,312.365584 1010.92146,312.365584 C1013.03985,312.365584 1014.75507,310.645826 1014.75507,308.523193 L1014.75507,308.523193 Z M1031.37147,291.864152 C1033.48849,291.864152 1035.20371,290.143024 1035.20371,288.02039 C1035.20371,285.899127 1033.48849,284.177999 1031.37147,284.177999 C1029.25444,284.177999 1027.53923,285.899127 1027.53923,288.02039 C1027.53923,290.143024 1029.25444,291.864152 1031.37147,291.864152 L1031.37147,291.864152 Z M1066.20057,259.203826 C1058.98847,254.074699 1050.60374,250.49541 1041.52608,248.951054 L1041.52608,280.072505 C1042.45818,280.406864 1043.36703,280.787815 1044.25266,281.209875 L1066.20057,259.203826 L1066.20057,259.203826 Z M1047.9865,308.523193 C1047.9865,310.645826 1049.70308,312.365584 1051.8201,312.365584 C1053.93576,312.365584 1055.65234,310.645826 1055.65234,308.523193 C1055.65234,306.400559 1053.93576,304.680801 1051.8201,304.680801 C1049.70308,304.682172 1047.9865,306.40193 1047.9865,308.523193 L1047.9865,308.523193 Z M996.540994,357.846671 C1003.7531,362.975797 1012.1392,366.555086 1021.21685,368.099443 L1021.21685,336.977991 C1020.28339,336.643632 1019.37453,336.262682 1018.48891,335.840622 L996.540994,357.846671 L996.540994,357.846671 Z M1002.99321,318.706078 L971.953975,318.706078 C973.494252,327.807777 977.064084,336.21472 982.17966,343.447296 L1004.12757,321.439876 C1003.70663,320.551906 1003.32668,319.640639 1002.99321,318.706078 L1002.99321,318.706078 Z M1059.74836,298.343048 L1090.78759,298.343048 C1089.24731,289.24135 1085.67748,280.835776 1080.5619,273.603201 L1058.61399,295.60925 C1059.03357,296.497221 1059.41488,297.408487 1059.74836,298.343048 L1059.74836,298.343048 Z" id="Shape"></path>
                    </g>
                </g>
            </g>
            <g id="Group-2" transform="translate(73.000000, 26.000000)">
                <g id="Group" transform="translate(225.433593, 0.000000)" stroke="#B43F3F" stroke-width="20">
                    <path d="M278.420087,115.452374 C278.420087,88.6893723 220.152672,56.7166269 148.276172,44.0392481 C76.3996727,31.3618694 18.1322573,63.3346148 18.1322573,115.452374 C18.1322573,167.570133 76.3996727,199.542878 148.276172,186.865499 C220.152672,174.188121 278.420087,142.215375 278.420087,115.452374 Z" id="Oval-7" transform="translate(148.276172, 115.452374) rotate(20.000000) translate(-148.276172, -115.452374) "></path>
                    <path d="M538.707917,115.452374 C538.707917,88.6893723 480.440501,56.7166269 408.564002,44.0392481 C336.687502,31.3618694 278.420087,63.3346148 278.420087,115.452374 C278.420087,167.570133 336.687502,199.542878 408.564002,186.865499 C480.440501,174.188121 538.707917,142.215375 538.707917,115.452374 Z" id="Oval-7" transform="translate(408.564002, 115.452374) scale(-1, -1) rotate(-20.000000) translate(-408.564002, -115.452374) "></path>
                </g>
                <path d="M477.227625,175.641104 C472.629439,156.896566 484.552645,141.701115 499.818479,141.701115 L468.901872,141.701115 C485.976643,141.701115 504.727912,156.561549 510.519845,174.974923 C510.519845,174.974923 538.815971,255.2663 538.815971,306.831954 C538.815971,365.184431 508.90015,468.6482 508.90015,468.6482 C503.884482,487.285967 484.167706,502.394863 468.901872,502.394863 L499.818479,502.394863 C482.743709,502.394863 472.094046,487.074042 475.910083,468.147088 C475.910083,468.147088 499.818479,357.92315 499.818479,306.831954 C499.818479,260.994315 477.227625,175.641104 477.227625,175.641104 Z" id="Rectangle-5" fill="#B43F3F"></path>
                <path d="M538.491364,-213.769614 C536.956357,-233.017529 551.362761,-248.621048 566.628595,-248.621048 L535.711988,-248.621048 C552.786758,-248.621048 568.284017,-233.054061 570.282046,-213.853309 C570.282046,-213.853309 605.626086,110.731644 605.626086,273.900105 C605.626086,458.544017 569.672419,857.899506 569.672419,857.899506 C567.991361,877.128691 550.977822,892.717026 535.711988,892.717026 L566.628595,892.717026 C549.553824,892.717026 536.753912,877.094754 538.019958,857.832305 C538.019958,857.832305 566.628595,435.567247 566.628595,273.900105 C566.628595,128.85672 538.491364,-213.769614 538.491364,-213.769614 Z" id="Rectangle-5" fill="#B43F3F" transform="translate(570.669037, 322.047989) rotate(90.000000) translate(-570.669037, -322.047989) "></path>
            </g>
        </g>
    </g>
</svg>