<?xml version="1.0" encoding="UTF-8"?>
<svg width="1500px" height="1500px" viewBox="0 0 1500 1500" version="1.1" xmlns="http://www.w3.org/2000/svg" xmlns:xlink="http://www.w3.org/1999/xlink">
    <!-- Generator: Sketch 40.3 (33839) - http://www.bohemiancoding.com/sketch -->
    <title>Logo BG</title>
    <desc>Created with Sketch.</desc>
    <defs>
        <path d="M851.954659,635 C821.476842,650.967911 786.7932,660 750,660 C713.2068,660 678.523158,650.967911 648.045341,635 L422,635 L422,440 L530,440 C530,318.497355 628.497355,220 750,220 C871.502645,220 970,318.497355 970,440 L1028,440 L1028,635 L851.954659,635 Z" id="path-1"></path>
    </defs>
    <g id="Page-1" stroke="none" stroke-width="1" fill="none" fill-rule="evenodd">
        <g id="Logo-BG">
            <circle id="Oval-2" fill="#55CCBC" cx="750" cy="750" r="700"></circle>
            <path d="M1165.39844,1198 L334.601562,1198 L410.617187,440 L1089.38281,440 L1165.39844,1198 Z M530.5,542 C552.867532,542 571,523.867532 571,501.5 C571,479.132468 552.867532,461 530.5,461 C508.132468,461 490,479.132468 490,501.5 C490,523.867532 508.132468,542 530.5,542 Z M964.5,542 C986.867532,542 1005,523.867532 1005,501.5 C1005,479.132468 986.867532,461 964.5,461 C942.132468,461 924,479.132468 924,501.5 C924,523.867532 942.132468,542 964.5,542 Z" id="Combined-Shape" fill="#FFFFFF"></path>
            <g id="1477926710_sedan" transform="translate(422.000000, 804.000000)" fill="#323232">
                <g id="Shape_1_5_">
                    <g id="Shape_1">
                        <path d="M144.371828,162.065678 C141.667124,162.065678 139.474041,164.262329 139.474041,166.971433 C139.474041,169.680537 141.667124,171.877188 144.371828,171.877188 C147.076533,171.877188 149.269616,169.680537 149.269616,166.971433 C149.269616,164.262329 147.077273,162.065678 144.371828,162.065678 L144.371828,162.065678 Z M144.371828,175.987195 C143.225679,175.987195 142.295729,176.918658 142.295729,178.067413 C142.295729,179.215426 143.224939,180.146889 144.371828,180.146889 C145.518718,180.146889 146.447928,179.215426 146.447928,178.067413 C146.447928,176.918658 145.518718,175.987195 144.371828,175.987195 L144.371828,175.987195 Z M149.873788,182.370238 L149.873788,199.21296 C154.791567,198.377164 159.333219,196.439336 163.240343,193.663487 L151.350158,181.75396 C150.870375,181.981634 150.378745,182.189285 149.873788,182.370238 L149.873788,182.370238 Z M159.132569,173.962597 L171.022014,185.871383 C173.794095,181.958644 175.726555,177.407379 176.561734,172.481601 L159.744885,172.481601 C159.563485,172.987379 159.359874,173.482034 159.132569,173.962597 L159.132569,173.962597 Z M159.131088,159.981752 C159.358393,160.462315 159.564226,160.955487 159.745625,161.461265 L176.561734,161.461265 C175.727296,156.535487 173.792614,151.986446 171.021273,148.072225 L159.131088,159.981752 L159.131088,159.981752 Z M137.394239,152.189648 C137.874763,151.961232 138.366393,151.754322 138.87135,151.573369 L138.87135,134.730648 C133.953571,135.566443 129.411919,137.504272 125.504795,140.280121 L137.394239,152.189648 L137.394239,152.189648 Z M144.371828,113.41898 C114.843684,113.41898 90.9056072,137.395255 90.9056072,166.972174 C90.9056072,196.549094 114.843684,220.525369 144.371828,220.525369 C173.900713,220.525369 197.83805,196.549094 197.83805,166.972174 C197.83805,137.395255 173.900713,113.41898 144.371828,113.41898 L144.371828,113.41898 Z M144.371828,205.224456 C123.279874,205.224456 106.18167,188.09844 106.18167,166.972174 C106.18167,145.846651 123.279874,128.719893 144.371828,128.719893 C165.463783,128.719893 182.561986,145.846651 182.561986,166.972174 C182.561986,188.09844 165.463783,205.224456 144.371828,205.224456 L144.371828,205.224456 Z M144.371828,157.95493 C145.518718,157.95493 146.447928,157.023466 146.447928,155.874711 C146.447928,154.726698 145.518718,153.795235 144.371828,153.795235 C143.225679,153.795235 142.295729,154.726698 142.295729,155.874711 C142.29647,157.023466 143.225679,157.95493 144.371828,157.95493 L144.371828,157.95493 Z M163.240343,140.279379 C159.333959,137.50353 154.790826,135.566443 149.873788,134.730648 L149.873788,151.573369 C150.378745,151.754322 150.871115,151.96049 151.350898,152.188906 L163.240343,140.279379 L163.240343,140.279379 Z M129.612569,159.98101 L117.723124,148.071483 C114.951043,151.984963 113.017842,156.535487 112.183404,161.461265 L129.000253,161.461265 C129.180912,160.955487 129.384524,160.461574 129.612569,159.98101 L129.612569,159.98101 Z M125.503314,193.664228 C129.410438,196.440077 133.953571,198.377164 138.87135,199.21296 L138.87135,182.370238 C138.366393,182.189285 137.873282,181.983117 137.393499,181.754701 L125.503314,193.664228 L125.503314,193.664228 Z M128.998772,172.481601 L112.183404,172.481601 C113.017842,177.407379 114.951783,181.957161 117.723124,185.871383 L129.613309,173.961114 C129.386005,173.48055 129.179431,172.987379 128.998772,172.481601 L128.998772,172.481601 Z M135.370709,166.970691 C135.370709,165.821936 134.441499,164.891215 133.294609,164.891215 C132.14772,164.891215 131.21851,165.821936 131.21851,166.970691 C131.21851,168.119446 132.14772,169.050168 133.294609,169.050168 C134.440758,169.050168 135.370709,168.119446 135.370709,166.970691 L135.370709,166.970691 Z M153.373688,166.970691 C153.373688,168.119446 154.302898,169.050168 155.449788,169.050168 C156.596677,169.050168 157.525887,168.119446 157.525887,166.970691 C157.525887,165.821936 156.596677,164.891215 155.449788,164.891215 C154.302898,164.891956 153.373688,165.822678 153.373688,166.970691 L153.373688,166.970691 Z M558.740966,162.065678 C556.036262,162.065678 553.843178,164.262329 553.843178,166.971433 C553.843178,169.680537 556.036262,171.877188 558.740966,171.877188 C561.44567,171.877188 563.638754,169.680537 563.638754,166.971433 C563.638754,164.262329 561.44567,162.065678 558.740966,162.065678 L558.740966,162.065678 Z M551.763377,152.189648 C552.24316,151.961232 552.73553,151.754322 553.239747,151.573369 L553.239747,134.730648 C548.321968,135.566443 543.780316,137.504272 539.872451,140.280121 L551.763377,152.189648 L551.763377,152.189648 Z M558.740966,175.987195 C557.594077,175.987195 556.664867,176.918658 556.664867,178.067413 C556.664867,179.215426 557.594077,180.146889 558.740966,180.146889 C559.887856,180.146889 560.817065,179.215426 560.817065,178.067413 C560.816325,176.918658 559.887115,175.987195 558.740966,175.987195 L558.740966,175.987195 Z M564.242185,182.370238 L564.242185,199.21296 C569.159964,198.377164 573.700876,196.439336 577.60874,193.663487 L565.718555,181.75396 C565.238772,181.981634 564.747142,182.189285 564.242185,182.370238 L564.242185,182.370238 Z M574.112542,172.481601 C573.931883,172.987379 573.72753,173.482034 573.500966,173.962597 L585.390411,185.871383 C588.162492,181.958644 590.094953,177.407379 590.930131,172.481601 L574.112542,172.481601 L574.112542,172.481601 Z M651.761914,104.683547 C644.505192,93.5564195 625.924695,89.6770537 611.771088,85.0479195 C512.935729,61.136906 480.066131,68.9201107 463.569878,66.5907114 C460.241752,65.7015201 457.274203,62.7914396 454.55247,61.093151 C448.587016,57.3710067 442.396479,54.0967953 436.517652,50.4896007 C426.804262,44.5300168 381.984506,19.9752852 369.866275,15.5389698 C343.239043,5.79272148 301.143242,-2.02237248 199.709797,6.11458054 C195.593138,4.98139933 193.108334,1.65305034 188.732533,0.616278523 C184.404117,-0.409369128 180.429616,1.8718255 177.362853,2.58006376 C177.418384,5.91063758 177.121481,8.61380872 176.578763,11.2190872 C156.754384,19.5926141 136.693815,26.0164463 116.984939,34.3884899 C108.760506,37.8822181 100.274709,41.300302 91.8925688,44.9912987 C86.6786275,47.2880671 81.6971738,50.5496711 75.8183476,52.4533859 C69.4330835,54.5195134 62.4532731,53.5858255 55.4305192,55.2017953 C42.6459233,58.1437651 28.7832957,58.5368188 14.6556027,58.7363121 C13.0407765,61.508453 10.2301941,64.3006174 9.5586456,67.7691309 C12.0056885,68.5255738 12.8253183,70.2149631 12.6950068,73.6590034 C8.37103386,80.0761611 9.53051016,89.2187383 9.5586456,99.577557 C0.347250564,104.301617 -1.05359819,121.611554 1.32532731,135.313554 C1.06396388,136.491973 0.802600451,137.670393 0.54123702,138.848812 C1.03360722,142.722245 2.29229797,146.815195 2.50109255,151.022352 C5.96027088,153.345819 9.88146275,157.079087 12.3025914,160.447483 C13.4835395,162.090151 14.0580948,164.921621 16.2230429,165.552732 C27.7963341,174.01451 86.402456,175.763228 86.402456,175.763228 L89.4855079,175.932315 C89.0138691,173.014819 88.7650926,170.022419 88.7650926,166.972174 C88.7650926,136.211644 113.661255,111.275725 144.371088,111.275725 C175.081661,111.275725 199.977084,136.211644 199.977084,166.972174 C199.977084,172.138235 199.272217,180.526594 197.957255,185.273644 L506.020334,184.727819 C504.149327,179.150906 503.13423,173.18094 503.13423,166.972916 C503.13423,136.212386 528.029652,111.276466 558.740226,111.276466 C589.450799,111.276466 614.346221,136.212386 614.346221,166.972916 C614.346221,172.364426 613.57916,177.575725 612.151657,182.505953 L615.299865,182.43995 C615.299865,182.43995 639.569643,181.265238 645.488451,178.512379 C651.40726,175.760262 653.72177,167.90957 653.72177,167.90957 L652.153589,151.416148 C652.15433,151.415406 659.44437,116.464034 651.761914,104.683547 L651.761914,104.683547 Z M159.719711,64.2390638 C141.293219,51.9765302 151.055476,37.6582517 150.558664,37.7034899 C150.263982,37.9660201 150.051485,38.1751544 149.918212,38.316802 C150.309147,37.9022416 150.501652,37.7086812 150.558664,37.7034899 C155.306149,33.4659262 182.400578,14.5125805 278.515684,14.3620336 C281.521734,31.2470268 284.527783,53.4300872 287.533093,70.3135973 C248.859449,69.1396275 172.736795,69.7944698 159.719711,64.2390638 L159.719711,64.2390638 Z M407.505571,70.5182819 C399.059016,70.5182819 314.977734,70.4952919 314.977734,70.4952919 C314.977734,70.4952919 301.405345,34.653245 296.551242,14.7580537 C297.116172,14.8099664 313.801228,15.540453 313.801228,15.540453 C313.801228,15.540453 346.832975,19.307094 367.514745,26.1440034 C383.785914,31.522906 415.909923,53.1408591 416.522239,54.4186544 C406.857716,54.9140503 404.56986,62.5392919 407.505571,70.5182819 L407.505571,70.5182819 Z M558.740966,113.41898 C529.212081,113.41898 505.274745,137.395255 505.274745,166.972174 C505.274745,196.549094 529.212081,220.525369 558.740966,220.525369 C588.269851,220.525369 612.207187,196.549094 612.207187,166.972174 C612.207187,137.395255 588.269111,113.41898 558.740966,113.41898 L558.740966,113.41898 Z M558.740966,205.224456 C537.649752,205.224456 520.550808,188.09844 520.550808,166.972174 C520.550808,145.846651 537.649752,128.719893 558.740966,128.719893 C579.832921,128.719893 596.931124,145.846651 596.931124,166.972174 C596.931124,188.09844 579.832921,205.224456 558.740966,205.224456 L558.740966,205.224456 Z M543.980966,159.98101 L532.090781,148.071483 C529.31944,151.984963 527.386239,156.535487 526.551801,161.461265 L543.36865,161.461265 C543.549309,160.955487 543.752921,160.461574 543.980966,159.98101 L543.980966,159.98101 Z M549.739106,166.970691 C549.739106,165.821936 548.809156,164.891215 547.662266,164.891215 C546.516117,164.891215 545.586167,165.821936 545.586167,166.970691 C545.586167,168.119446 546.516117,169.050168 547.662266,169.050168 C548.809896,169.050168 549.739106,168.119446 549.739106,166.970691 L549.739106,166.970691 Z M558.740966,157.95493 C559.887856,157.95493 560.817065,157.023466 560.817065,155.874711 C560.817065,154.726698 559.887856,153.795235 558.740966,153.795235 C557.594077,153.795235 556.664867,154.726698 556.664867,155.874711 C556.664867,157.023466 557.594077,157.95493 558.740966,157.95493 L558.740966,157.95493 Z M577.609481,140.279379 C573.702357,137.50353 569.159964,135.566443 564.242185,134.730648 L564.242185,151.573369 C564.747142,151.754322 565.239512,151.96049 565.719296,152.188906 L577.609481,140.279379 L577.609481,140.279379 Z M567.742086,166.970691 C567.742086,168.119446 568.672036,169.050168 569.818926,169.050168 C570.965074,169.050168 571.895025,168.119446 571.895025,166.970691 C571.895025,165.821936 570.965074,164.891215 569.818926,164.891215 C568.672036,164.891956 567.742086,165.822678 567.742086,166.970691 L567.742086,166.970691 Z M539.871711,193.664228 C543.778835,196.440077 548.321968,198.377164 553.239747,199.21296 L553.239747,182.370238 C552.73405,182.189285 552.241679,181.983117 551.761896,181.754701 L539.871711,193.664228 L539.871711,193.664228 Z M543.367169,172.481601 L526.551801,172.481601 C527.386239,177.407379 529.320181,181.957161 532.091521,185.871383 L543.981707,173.961114 C543.753661,173.48055 543.547828,172.987379 543.367169,172.481601 L543.367169,172.481601 Z M574.114023,161.461265 L590.929391,161.461265 C590.094953,156.535487 588.161011,151.986446 585.38967,148.072225 L573.499485,159.981752 C573.72679,160.462315 573.933363,160.955487 574.114023,161.461265 L574.114023,161.461265 Z" id="Shape"></path>
                    </g>
                </g>
            </g>
            <mask id="mask-2" fill="white">
                <use xlink:href="#path-1"></use>
            </mask>
            <use id="Combined-Shape" stroke="#FFFFFF" stroke-width="10" xlink:href="#path-1"></use>
        </g>
    </g>
</svg>