<?xml version="1.0" encoding="UTF-8"?>
<svg xmlns="http://www.w3.org/2000/svg" xmlns:xlink="http://www.w3.org/1999/xlink" width="778.5pt" height="819.200012pt" viewBox="0 0 778.5 819.200012" version="1.1">
<g id="surface1">
<path style=" stroke:none;fill-rule:nonzero;fill:rgb(100%,100%,100%);fill-opacity:1;" d="M 768 665.601562 L 568.699219 466.300781 C 597.152344 419.847656 614.398438 365.726562 614.398438 307.199219 C 614.398438 137.574219 476.800781 0 307.199219 0 C 137.574219 0 0 137.574219 0 307.199219 C 0 476.800781 137.574219 614.398438 307.199219 614.398438 C 365.726562 614.398438 419.847656 597.152344 466.300781 568.800781 L 665.601562 768 C 679.601562 782 702.800781 781.898438 716.800781 768 L 768 716.800781 C 782 702.800781 782 679.601562 768 665.601562 Z M 307.199219 512 C 194.101562 512 102.398438 420.300781 102.398438 307.199219 C 102.398438 194.101562 194.101562 102.398438 307.199219 102.398438 C 420.300781 102.398438 512 194.101562 512 307.199219 C 512 420.300781 420.300781 512 307.199219 512 Z M 307.199219 512 "/>
</g>
</svg>
