<?xml version="1.0" encoding="UTF-8"?>
<svg xmlns="http://www.w3.org/2000/svg" xmlns:xlink="http://www.w3.org/1999/xlink" width="72.800003pt" height="72.800003pt" viewBox="0 0 72.800003 72.800003" version="1.1">
<g id="surface1">
<path style=" stroke:none;fill-rule:nonzero;fill:rgb(100%,100%,100%);fill-opacity:1;" d="M 18.679688 37.867188 C 20.761719 39.816406 23.539062 41.019531 26.597656 41.019531 C 29.6875 41.019531 32.492188 39.792969 34.578125 37.808594 C 36.699219 39.066406 37.976562 40.882812 37.976562 42.792969 L 37.976562 55.445312 L 40.699219 55.445312 L 40.699219 42.792969 C 40.699219 40.023438 39.0625 37.457031 36.332031 35.703125 C 37.53125 33.863281 38.234375 31.671875 38.234375 29.316406 C 38.234375 22.859375 33.011719 17.609375 26.597656 17.609375 C 20.179688 17.609375 14.960938 22.859375 14.960938 29.316406 C 14.960938 31.703125 15.679688 33.929688 16.90625 35.78125 C 14.25 37.535156 12.660156 40.074219 12.660156 42.796875 L 12.660156 55.445312 L 15.378906 55.445312 L 15.378906 42.792969 C 15.378906 40.917969 16.621094 39.125 18.679688 37.867188 Z M 26.59375 20.332031 C 31.511719 20.332031 35.511719 24.359375 35.511719 29.3125 C 35.511719 34.265625 31.511719 38.296875 26.59375 38.296875 C 21.679688 38.296875 17.679688 34.269531 17.679688 29.3125 C 17.679688 24.359375 21.679688 20.332031 26.59375 20.332031 Z M 26.59375 20.332031 "/>
<path style=" stroke:none;fill-rule:nonzero;fill:rgb(100%,100%,100%);fill-opacity:1;" d="M 41.382812 21.351562 L 60.421875 21.351562 L 60.421875 24.070312 L 41.382812 24.070312 Z M 41.382812 21.351562 "/>
<path style=" stroke:none;fill-rule:nonzero;fill:rgb(100%,100%,100%);fill-opacity:1;" d="M 41.382812 31.097656 L 60.421875 31.097656 L 60.421875 33.816406 L 41.382812 33.816406 Z M 41.382812 31.097656 "/>
<path style=" stroke:none;fill-rule:nonzero;fill:rgb(100%,100%,100%);fill-opacity:1;" d="M 44.101562 40.84375 L 60.421875 40.84375 L 60.421875 43.566406 L 44.101562 43.566406 Z M 44.101562 40.84375 "/>
<path style=" stroke:none;fill-rule:nonzero;fill:rgb(100%,100%,100%);fill-opacity:1;" d="M 44.101562 50.589844 L 60.421875 50.589844 L 60.421875 53.308594 L 44.101562 53.308594 Z M 44.101562 50.589844 "/>
</g>
</svg>
